<svg width="64" height="64" viewBox="0 0 64 64" fill="none" xmlns="http://www.w3.org/2000/svg">
<path d="M27.4381 10.2929L4.85144 47.9996C4.38575 48.806 4.13935 49.7204 4.13674 50.6516C4.13413 51.5829 4.37541 52.4986 4.83657 53.3076C5.29774 54.1167 5.9627 54.7909 6.76532 55.2632C7.56794 55.7354 8.48023 55.9893 9.41144 55.9996H54.5848C55.516 55.9893 56.4283 55.7354 57.2309 55.2632C58.0335 54.7909 58.6985 54.1167 59.1596 53.3076C59.6208 52.4986 59.8621 51.5829 59.8595 50.6516C59.8569 49.7204 59.6105 48.806 59.1448 47.9996L36.5581 10.2929C36.0827 9.50919 35.4134 8.86122 34.6146 8.41153C33.8159 7.96183 32.9147 7.72559 31.9981 7.72559C31.0815 7.72559 30.1803 7.96183 29.3816 8.41153C28.5828 8.86122 27.9135 9.50919 27.4381 10.2929Z" stroke="#B91C1C" stroke-width="2" stroke-linecap="round" stroke-linejoin="round"/>
<path d="M32 24V34.6667" stroke="#B91C1C" stroke-width="2" stroke-linecap="round" stroke-linejoin="round"/>
<path d="M32 45.333H32.0267" stroke="#B91C1C" stroke-width="2" stroke-linecap="round" stroke-linejoin="round"/>
</svg>
