<svg width="25" height="25" viewBox="0 0 25 25" fill="none" xmlns="http://www.w3.org/2000/svg">
<path d="M18.7051 8.78223C18.7051 7.19093 18.0729 5.6648 16.9477 4.53959C15.8225 3.41437 14.2964 2.78223 12.7051 2.78223C11.1138 2.78223 9.58766 3.41437 8.46244 4.53959C7.33722 5.6648 6.70508 7.19093 6.70508 8.78223C6.70508 15.7822 3.70508 17.7822 3.70508 17.7822H21.7051C21.7051 17.7822 18.7051 15.7822 18.7051 8.78223Z" stroke="black" stroke-width="2" stroke-linecap="round" stroke-linejoin="round"/>
<path d="M14.4351 21.7822C14.2593 22.0853 14.0069 22.3369 13.7033 22.5118C13.3997 22.6866 13.0555 22.7787 12.7051 22.7787C12.3547 22.7787 12.0105 22.6866 11.7069 22.5118C11.4033 22.3369 11.1509 22.0853 10.9751 21.7822" stroke="black" stroke-width="2" stroke-linecap="round" stroke-linejoin="round"/>
</svg>
