<svg width="33" height="32" viewBox="0 0 33 32" fill="none" xmlns="http://www.w3.org/2000/svg">
<path d="M24.8445 11.3468L13.0745 5.64018C5.16829 1.80018 1.92329 4.94685 5.88329 12.6135L7.07954 14.9335C7.42329 15.6135 7.42329 16.4002 7.07954 17.0802L5.88329 19.3868C1.92329 27.0535 5.15454 30.2002 13.0745 26.3602L24.8445 20.6535C30.1245 18.0935 30.1245 13.9068 24.8445 11.3468ZM20.4033 17.0002H12.9783C12.4145 17.0002 11.947 16.5468 11.947 16.0002C11.947 15.4535 12.4145 15.0002 12.9783 15.0002H20.4033C20.967 15.0002 21.4345 15.4535 21.4345 16.0002C21.4345 16.5468 20.967 17.0002 20.4033 17.0002Z" fill="#F25217"/>
</svg>
