<svg width="31" height="31" viewBox="0 0 31 31" fill="none" xmlns="http://www.w3.org/2000/svg">
<circle cx="15.5" cy="15.5" r="15.5" fill="white"/>
<path d="M24.2096 21.0417C24.2096 21.4616 24.0428 21.8643 23.7459 22.1613C23.449 22.4582 23.0462 22.625 22.6263 22.625H8.3763C7.95638 22.625 7.55365 22.4582 7.25672 22.1613C6.95978 21.8643 6.79297 21.4616 6.79297 21.0417V12.3333C6.79297 11.9134 6.95978 11.5107 7.25672 11.2137C7.55365 10.9168 7.95638 10.75 8.3763 10.75H11.543L13.1263 8.375H17.8763L19.4596 10.75H22.6263C23.0462 10.75 23.449 10.9168 23.7459 11.2137C24.0428 11.5107 24.2096 11.9134 24.2096 12.3333V21.0417Z" fill="#6B6A71" stroke="#6B6A71" stroke-width="2" stroke-linecap="round" stroke-linejoin="round"/>
<path d="M15.4987 19.4583C17.2476 19.4583 18.6654 18.0406 18.6654 16.2917C18.6654 14.5428 17.2476 13.125 15.4987 13.125C13.7498 13.125 12.332 14.5428 12.332 16.2917C12.332 18.0406 13.7498 19.4583 15.4987 19.4583Z" fill="white" stroke="#6B6A71" stroke-width="2" stroke-linecap="round" stroke-linejoin="round"/>
</svg>
