<svg width="15" height="13" viewBox="0 0 15 13" fill="none" xmlns="http://www.w3.org/2000/svg">
<path d="M12.2893 2.4971C12.0126 2.22031 11.6842 2.00074 11.3226 1.85093C10.9611 1.70113 10.5736 1.62402 10.1822 1.62402C9.79086 1.62402 9.40335 1.70113 9.04181 1.85093C8.68027 2.00074 8.35179 2.22031 8.07513 2.4971L7.50096 3.07126L6.92679 2.4971C6.36796 1.93826 5.61002 1.62431 4.81971 1.62431C4.0294 1.62431 3.27146 1.93826 2.71263 2.4971C2.15379 3.05593 1.83984 3.81387 1.83984 4.60418C1.83984 5.39449 2.15379 6.15243 2.71263 6.71126L3.28679 7.28543L7.50096 11.4996L11.7151 7.28543L12.2893 6.71126C12.5661 6.4346 12.7857 6.10612 12.9355 5.74458C13.0853 5.38304 13.1624 4.99553 13.1624 4.60418C13.1624 4.21283 13.0853 3.82532 12.9355 3.46378C12.7857 3.10224 12.5661 2.77376 12.2893 2.4971Z" fill="#F25217" stroke="#F25217" stroke-width="2" stroke-linecap="round" stroke-linejoin="round"/>
</svg>
