<svg width="17" height="17" viewBox="0 0 17 17" fill="none" xmlns="http://www.w3.org/2000/svg">
<path d="M10.9792 9.91667H10.4196L10.2213 9.72542C10.9394 8.89243 11.3341 7.82899 11.3333 6.72917C11.3333 5.81855 11.0633 4.92838 10.5574 4.17123C10.0515 3.41408 9.33241 2.82395 8.49111 2.47547C7.64981 2.12699 6.72406 2.03582 5.83094 2.21347C4.93782 2.39112 4.11744 2.82963 3.47353 3.47353C2.82963 4.11744 2.39112 4.93782 2.21347 5.83094C2.03582 6.72406 2.12699 7.64981 2.47547 8.49111C2.82395 9.33241 3.41408 10.0515 4.17123 10.5574C4.92838 11.0633 5.81855 11.3333 6.72917 11.3333C7.86959 11.3333 8.91792 10.9154 9.72542 10.2213L9.91667 10.4196V10.9792L13.4583 14.5138L14.5138 13.4583L10.9792 9.91667ZM6.72917 9.91667C4.96542 9.91667 3.54167 8.49292 3.54167 6.72917C3.54167 4.96542 4.96542 3.54167 6.72917 3.54167C8.49292 3.54167 9.91667 4.96542 9.91667 6.72917C9.91667 8.49292 8.49292 9.91667 6.72917 9.91667Z" fill="#2E3138"/>
</svg>
