<svg width="109" height="23" viewBox="0 0 109 23" fill="none" xmlns="http://www.w3.org/2000/svg">
<path d="M3.21299 9.175C3.16299 9.175 3.13799 9.15 3.13799 9.125C2.81299 8.875 2.71299 8.25 2.71299 7.875C2.68799 7.275 2.61299 6.675 2.61299 6.1C2.61299 5.25 2.58799 4.225 2.73799 3.4C2.83799 2.875 3.03799 2.575 3.53799 2.375C3.98799 2.2 4.46299 2.15 4.93799 2.1C5.51299 2.05 6.11299 2.1 6.71299 2.1H11.463C13.163 2.1 12.938 2.1 14.613 2.075C14.913 2.075 15.188 2.075 15.488 2.1C16.113 2.125 16.813 2.15 17.388 2.425C18.038 2.7 18.238 3.4 18.263 4.05C18.313 4.8 18.238 5.75 18.238 6.5C18.213 7.175 18.238 7.85 18.063 8.5C17.963 8.875 17.888 9.175 17.488 9.3C17.138 9.425 16.688 9.45 16.338 9.45H5.53799C5.21299 9.45 4.88799 9.425 4.56299 9.4C4.13799 9.375 3.58799 9.425 3.21299 9.175ZM5.58799 6.25C5.58799 6.4 5.58799 6.575 5.66299 6.65C5.81299 6.775 6.38799 6.7 6.38799 6.7H12.963C12.963 6.7 14.163 6.8 14.763 6.725C15.113 6.7 15.113 6.55 15.163 6.25C15.188 5.975 15.238 5.4 15.038 5.15C14.813 4.875 14.288 4.925 13.988 4.95H11.713C11.488 4.925 8.46299 4.95 8.23799 4.95C7.53799 4.9 6.83799 4.925 6.11299 4.95C5.81299 4.95 5.71299 4.9 5.63799 5.2C5.58799 5.425 5.58799 5.825 5.58799 6.025V6.25ZM2.28799 18.425C2.28799 15.925 5.18799 15.2 8.98799 15.05L9.01299 13.9C7.48799 13.9 3.73799 13.85 2.33799 13.75C1.81299 13.7 1.56299 13.675 1.13799 13.275C0.912988 13.075 0.812988 12.725 0.812988 12.375C0.812988 12.05 0.937988 11.725 1.13799 11.525C1.63799 11 2.86299 11.025 2.91299 11.025H17.213C17.713 11.025 18.213 11.025 18.688 11.05C19.138 11.075 19.638 11.15 19.988 11.475C20.338 11.75 20.338 12.075 20.338 12.475C20.338 12.975 20.038 13.375 19.538 13.55C18.863 13.8 18.038 13.825 17.338 13.85C15.688 13.9 14.088 13.95 12.413 13.95L12.388 15.075C15.988 15.2 18.663 15.75 18.663 18.425C18.663 21.525 14.988 21.8 10.463 21.8C5.96299 21.8 2.28799 21.525 2.28799 18.425ZM15.363 18.425C15.363 17.35 12.763 17.475 10.463 17.475C8.18799 17.475 5.73799 17.35 5.73799 18.425C5.73799 19.375 8.18799 19.35 10.463 19.35C12.763 19.35 15.363 19.675 15.363 18.425ZM25.6202 13.525C25.8202 13.325 26.0202 12.975 26.1202 12.875V7.225C25.9702 7.275 25.8202 7.225 25.6702 7.225H24.9952C23.8202 7.225 22.8952 7.175 22.6702 7.125C22.0702 7 21.6452 6.7 21.4452 6.1C21.3952 5.875 21.3452 5.675 21.3952 5.425C21.3952 5.225 21.4952 5.025 21.6452 4.8C21.7452 4.65 21.9702 4.5 22.1702 4.4C22.3702 4.25 22.5702 4.2 22.7702 4.15H26.0702C26.0702 3.775 26.1202 3.025 26.1202 2.725C26.1952 2.3 26.3452 1.95 26.4952 1.65C26.6952 1.325 26.9952 1.125 27.3702 1.025C27.7202 0.874999 28.1202 0.924999 28.4952 1.075C28.7452 1.175 28.9952 1.375 29.0952 1.6C29.2702 1.8 29.4202 2.05 29.4702 2.3C29.5202 2.575 29.5702 2.875 29.5702 3.175V4.15H31.2702C31.9452 4.15 32.4452 4.2 32.9202 4.25C33.3702 4.35 33.7952 4.6 34.0452 5.025C34.1952 5.275 34.2452 5.475 34.2452 5.725C34.2952 5.925 34.2452 6.15 34.1452 6.35C33.9452 6.75 33.5452 7 32.9702 7.125C32.6202 7.175 32.1452 7.175 31.6452 7.225C31.1202 7.225 30.3952 7.275 29.5702 7.225C29.5702 7.775 29.5202 8.75 29.5702 9.15V11.9C29.5702 12.05 29.5202 12.2 29.5702 12.4V12.8C29.7202 12.925 29.8702 13.175 30.1202 13.425C30.3452 13.625 30.4952 13.825 30.6452 14C30.7952 14.2 30.9452 14.4 31.1452 14.6C31.3202 14.75 31.4702 15.025 31.6702 15.225C31.7702 15.375 31.8702 15.525 31.9702 15.625C32.0702 15.775 32.1702 15.95 32.2202 16.05C32.5452 16.45 32.8452 16.85 33.1452 17.375C33.5202 17.825 33.7202 18.35 33.8202 18.8C33.8702 19.025 33.8702 19.275 33.8202 19.525C33.7702 19.775 33.6702 19.975 33.4702 20.2C33.2452 20.4 32.9452 20.5 32.5452 20.5C32.1702 20.5 31.8702 20.4 31.5202 20.25C31.1952 20.05 30.9452 19.825 30.6952 19.625C30.3952 19.325 30.1202 18.95 29.8702 18.65C29.6202 18.35 29.3702 18 29.0952 17.625C28.8952 17.425 28.6952 17.175 28.4952 16.9C28.2952 16.6 28.0202 16.4 27.8202 16.2C27.6202 16.45 27.4202 16.7 27.2202 16.975C26.9952 17.225 26.7952 17.475 26.5952 17.725C26.3952 18.05 26.1202 18.4 25.8702 18.7C25.6702 19.025 25.4202 19.375 25.0952 19.675C24.4452 20.35 23.8702 20.55 23.2702 20.55C23.1202 20.55 22.9452 20.55 22.7952 20.5C22.4452 20.4 22.1952 20.2 22.0202 19.825C21.9202 19.575 21.8702 19.325 21.9202 19.025C21.9702 18.7 22.0202 18.4 22.1952 18.2C22.2952 17.925 22.4452 17.675 22.5952 17.425C22.7452 17.225 22.8952 16.975 23.1202 16.75C23.2202 16.65 23.3202 16.5 23.4202 16.4L23.7202 15.95C23.8202 15.725 23.9202 15.625 24.1952 15.275C24.4452 14.975 24.6952 14.65 24.8952 14.4C25.1702 14.1 25.4202 13.775 25.6202 13.525ZM39.2952 19.825C39.2452 20.025 39.2452 20.225 39.1952 20.425C39.1952 20.95 38.8952 21.65 38.4202 21.925C38.0702 22.075 37.5952 22.125 37.2452 22.075C36.5202 21.925 36.2202 21.3 36.1202 20.625C36.0702 20.375 36.0702 20.125 36.0202 19.875C36.0202 19.4 36.0702 18.8 36.0702 18.225C36.0202 17 36.0702 15.825 36.0702 14.575C36.0702 13.15 36.0202 11.675 36.0702 10.225V3.35C36.1202 3.1 36.1702 2.9 36.2202 2.7C36.3202 2.5 36.3702 2.325 36.5202 2.225C36.6702 2.075 36.8952 1.925 37.0952 1.925C37.2952 1.875 37.4952 1.825 37.6952 1.825C38.0202 1.825 38.2702 1.925 38.4702 2.075C38.7202 2.225 38.8952 2.45 38.9952 2.75C39.1452 3.05 39.2452 3.475 39.2452 3.825C39.2952 4.85 39.2952 5.825 39.2952 6.85C39.3452 7.575 39.3452 8.225 39.2952 8.95V19.825ZM49.3153 12.675C48.8403 12.725 45.6153 12.65 45.0653 12.675H45.0403C43.8653 12.675 42.5903 12.7 42.0653 11.925C41.4903 11.05 41.6153 9.025 41.6153 8.95C41.6153 8.95 41.6153 8.125 41.6403 7C41.6653 5.8 41.6653 4.525 41.6653 4.525C41.6653 4.325 41.6653 3.35 41.9153 2.95C42.2153 2.475 42.4903 2.3 42.9903 2.2C43.3653 2.15 44.4153 2.1 44.4153 2.1H50.0653C50.7903 2.1 51.6903 2.175 52.3153 2.575C53.2903 3.2 53.0403 4.525 53.0403 5.475C53.0403 6 53.0153 6.525 53.0403 7.05V8.425C53.0153 8.6 53.0403 8.8 53.0403 9C52.9903 9.425 53.0403 9.85 53.0403 10.3C53.0403 11 52.8653 12.125 52.0653 12.425C51.1903 12.775 50.2153 12.675 49.3153 12.675ZM58.8403 18.9C58.8653 18.925 59.8653 19.15 59.9653 19.85C60.0403 20.475 59.9403 20.975 59.6403 21.325C59.2403 21.8 58.6403 21.825 58.6153 21.825H45.5903C44.2403 21.825 43.4153 21.375 43.4153 20.625V17.625C43.3903 17.25 43.3903 16.275 43.4153 15.9C43.4903 15.2 44.1903 14.725 44.9403 14.725C45.1153 14.725 45.3903 14.75 45.5653 14.8C46.4653 15.075 46.5153 16.175 46.5653 16.925C46.5903 17.2 46.5403 18.675 46.5653 18.85C46.6653 18.875 47.0153 18.95 48.2403 18.95C49.3153 18.95 50.2903 18.9 50.3153 18.9H58.8403ZM59.6653 2.625C59.8903 3.075 59.9153 4.725 59.8903 4.875V13.5C59.8903 13.55 59.7903 14.5 59.0903 14.9C58.8653 15.05 58.6153 15.125 58.3653 15.125C58.0403 15.125 57.7403 15.025 57.4903 14.825C57.3153 14.725 57.1403 14.55 57.0403 14.325C56.8153 13.925 56.7653 13.5 56.7403 13.15V11.925H56.6653C55.6403 11.875 54.2153 11.925 53.7903 11.25C53.5653 10.9 53.6153 10.275 53.6903 9.925C53.7903 9.525 54.0403 9.25 54.7403 9.1C55.0153 9.05 56.4403 9 56.7403 8.975V7.35C55.7153 7.35 54.1903 7.5 53.7903 6.85C53.5653 6.525 53.6153 5.725 53.6903 5.35C53.7903 4.975 54.0403 4.7 54.7403 4.55C54.9403 4.5 56.1153 4.475 56.7403 4.45C56.7153 4.15 56.7403 3.5 56.8153 3.225C56.9153 2.95 56.9403 2.675 57.1653 2.425C57.4653 2.1 58.0153 1.925 58.6153 2C59.1153 2.075 59.5153 2.325 59.6653 2.625ZM49.1903 5.275L46.1153 5.225C45.8153 5.225 45.5653 5.225 45.3653 5.275C45.0903 5.3 44.9653 5.375 44.7903 5.575C44.6653 5.75 44.6653 6.175 44.6653 6.25V7.3C44.6403 7.775 44.6403 8.25 44.6403 8.25C44.6403 8.275 44.5903 9.125 44.8903 9.5C45.1653 9.825 45.8403 9.825 46.4403 9.825H46.4653C47.3403 9.8 47.7403 9.825 48.6403 9.825C48.9153 9.825 49.1903 9.85 49.4653 9.8C49.7403 9.775 49.8153 9.625 49.8653 9.425C49.8903 9.325 49.9153 9.225 49.9153 9.1C49.9903 8.75 50.0153 8.4 50.0153 8.025C50.0153 7.5 50.0403 6.95 50.0153 6.425C49.9903 6.175 50.0403 5.875 49.9653 5.625C49.8403 5.275 49.4903 5.275 49.1903 5.275ZM68.1581 13.125C67.9331 13.025 67.7581 12.825 67.6581 12.55C67.1081 11.2 68.6331 9.9 69.3831 9C69.9581 8.3 70.4831 7.6 71.0331 6.875C71.4331 6.325 71.9831 5.475 72.0331 4.75C72.0581 4.35 72.1081 3.375 72.2081 3C72.4081 2.35 72.8081 2.125 73.7331 2.125C74.2581 2.125 75.0831 2.275 75.3081 2.8C75.5581 3.4 75.3081 4.275 75.5081 4.9C75.6581 5.4 76.0581 5.95 76.4081 6.475C77.0331 7.375 77.7081 8.55 78.2331 9.275C78.7581 9.975 79.3331 10.725 79.5081 11.575C79.8331 13.025 77.9831 13.6 77.0581 12.65C75.8331 11.4 74.9081 9.85 73.8331 8.475C73.8081 8.45 70.9081 11.975 70.6581 12.275C70.3081 12.7 69.8081 13.075 69.2581 13.2C68.8831 13.275 68.4831 13.275 68.1581 13.125ZM72.0081 21.825C70.6581 21.825 69.7331 21.125 69.7331 20.375V16.775C69.7081 16.4 69.7081 16.025 69.7331 15.65C69.8081 14.95 70.3331 14.475 71.0831 14.475C71.2581 14.475 71.8081 14.5 71.9831 14.55C72.8581 14.825 72.9081 15.675 72.9581 16.425C72.9831 16.7 73.0081 18.625 73.0581 18.85C73.1581 18.875 73.5081 18.95 74.7331 18.95C75.8081 18.95 75.9081 18.9 75.9331 18.9H84.1081C84.1331 18.925 85.1331 19.15 85.2331 19.85C85.3081 20.475 85.2081 20.975 84.9081 21.325C84.5081 21.8 83.9081 21.825 83.8831 21.825H72.0081ZM85.2831 9.775H84.7081V12.375C84.6831 12.725 84.6331 13.125 84.4331 13.5C84.3331 13.7 84.1831 13.875 84.0081 13.975C83.7581 14.15 83.4581 14.25 83.1581 14.25C82.9081 14.25 82.6581 14.175 82.4581 14.05C81.7831 13.65 81.6831 12.75 81.6831 12.725V3.95C81.6831 3.8 81.7081 3.05 81.9081 2.65C82.0581 2.325 82.4331 2.1 82.9331 2.05C83.4831 1.975 84.0331 2.125 84.3081 2.425C84.5081 2.675 84.5581 2.925 84.6331 3.2C84.7331 3.525 84.7331 3.925 84.7081 4.275V6.975C84.9831 7 86.3581 7.05 86.6331 7.125C87.2831 7.25 87.5081 7.5 87.6081 7.875C87.6831 8.225 87.7081 8.8 87.5081 9.125C87.1081 9.775 86.2581 9.775 85.2831 9.775ZM98.9351 17.625C99.9101 17.625 100.81 17.85 100.935 18.925C101.06 20 99.9601 20.65 99.0601 20.7C98.3601 20.725 95.0101 20.7 93.3851 20.7H93.1851C92.4351 20.675 91.5601 20.675 90.8101 20.45C90.2851 20.3 89.7601 19.825 89.5101 19.25C89.1851 18.525 89.2601 16.975 89.2601 16.9V6.275C89.2351 6.1 89.0601 4.325 89.5601 3.5C89.9851 2.8 91.8851 2.775 92.0601 2.775H97.9101C98.0101 2.775 100.11 2.7 100.435 3.75C100.56 4.125 100.535 5.025 100.385 5.3C100.26 5.525 100.035 5.675 99.7601 5.75C99.4601 5.825 98.9851 5.875 98.3351 5.875C97.9101 5.875 97.5851 5.85 94.5101 5.85C94.0601 5.85 93.4851 5.875 93.2601 5.975C92.7851 6.175 92.8101 7.275 92.8601 7.65V7.675L92.9601 16.325C92.9601 16.975 93.2101 17.45 93.9851 17.45C94.1601 17.475 96.7351 17.625 98.9351 17.625ZM105.585 9.55L107.56 9.725C108.16 9.85 108.685 10.25 108.685 10.975C108.685 11.225 108.685 11.45 108.61 11.7C108.51 12.25 108.21 12.725 107.585 12.725L105.535 12.75C105.485 14.475 105.535 17.125 105.535 19.2C105.535 20.075 105.51 21.925 104.035 22.025C102.41 22.125 102.285 20.525 102.285 19.475V4.125C102.285 4.075 102.26 2.825 102.81 2.275C103.035 2.05 103.56 1.925 103.935 1.925C104.31 1.925 104.635 2.075 104.86 2.3C105.31 2.775 105.335 3.3 105.385 3.85C105.535 5.675 105.585 7.65 105.585 9.55Z" fill="#F25217"/>
</svg>
